<svg width="512" height="512" viewBox="0 0 512 512" fill="none" xmlns="http://www.w3.org/2000/svg">
<path d="M194.703 440.623H238.257H314.47C343.75 440.623 370.946 425.457 386.362 400.533L405.652 369.345C421.429 343.836 411.964 310.27 385.192 296.79C360.98 284.599 350.508 255.583 361.344 230.709L369.057 213.004C380.458 186.832 375.216 156.378 355.722 135.538L321.886 99.3669C286.098 61.1099 225.784 60.1234 188.768 97.1896L146.535 139.479C141.05 144.972 132.52 145.987 125.901 141.936C115.275 135.431 101.522 142.366 100.415 154.787L95.175 213.59C94.0221 226.527 88.1731 238.58 77.8055 246.386C57.3549 261.784 29.1442 280.753 23.9831 293.376C-12.3905 382.335 98.7003 440.623 194.703 440.623Z" fill="#E7E8FF"/>
<path d="M156.737 88.5792C156.737 83.5772 160.792 79.5223 165.794 79.5223H434.118C439.12 79.5223 443.174 83.5772 443.174 88.5792V325.679C443.174 330.682 439.12 334.736 434.118 334.736H165.794C160.792 334.736 156.737 330.682 156.737 325.679V88.5792Z" fill="white"/>
<path fill-rule="evenodd" clip-rule="evenodd" d="M155.38 88.5792C155.38 82.8275 160.043 78.1647 165.794 78.1647H434.118C439.869 78.1647 444.532 82.8275 444.532 88.5792V325.679C444.532 331.431 439.869 336.094 434.118 336.094H165.794C160.043 336.094 155.38 331.431 155.38 325.679V88.5792ZM165.794 80.8798C161.542 80.8798 158.095 84.3269 158.095 88.5792V325.679C158.095 329.932 161.542 333.379 165.794 333.379H434.118C438.37 333.379 441.817 329.932 441.817 325.679V88.5792C441.817 84.3269 438.37 80.8798 434.118 80.8798H165.794Z" fill="#1F6CAB"/>
<path d="M178.458 129.751C178.458 127.501 180.281 125.678 182.531 125.678H250.407C252.656 125.678 254.479 127.501 254.479 129.751C254.479 132 252.656 133.823 250.407 133.823H182.531C180.281 133.823 178.458 132 178.458 129.751Z" fill="#1F6CAB"/>
<path d="M156.737 88.5792C156.737 83.5772 160.792 79.5223 165.794 79.5223H434.118C439.12 79.5223 443.174 83.5772 443.174 88.5792V110.745H156.737V88.5792Z" fill="#1F6CAB"/>
<path d="M185.39 95.3559C185.39 99.1037 182.352 102.142 178.604 102.142C174.857 102.142 171.818 99.1037 171.818 95.3559C171.818 91.6081 174.857 88.5699 178.604 88.5699C182.352 88.5699 185.39 91.6081 185.39 95.3559Z" fill="white"/>
<path d="M208.011 95.3559C208.011 99.1037 204.973 102.142 201.225 102.142C197.478 102.142 194.439 99.1037 194.439 95.3559C194.439 91.6081 197.478 88.5699 201.225 88.5699C204.973 88.5699 208.011 91.6081 208.011 95.3559Z" fill="white"/>
<path d="M230.631 95.3559C230.631 99.1037 227.592 102.142 223.845 102.142C220.097 102.142 217.059 99.1037 217.059 95.3559C217.059 91.6081 220.097 88.5699 223.845 88.5699C227.592 88.5699 230.631 91.6081 230.631 95.3559Z" fill="white"/>
<path d="M168.955 291.975C168.955 290.85 169.867 289.938 170.991 289.938H428.921C430.045 289.938 430.957 290.85 430.957 291.975C430.957 293.099 430.045 294.011 428.921 294.011H170.991C169.867 294.011 168.955 293.099 168.955 291.975Z" fill="#E7E8FF"/>
<path d="M168.955 302.835C168.955 301.71 169.867 300.798 170.991 300.798H428.921C430.045 300.798 430.957 301.71 430.957 302.835C430.957 303.959 430.045 304.871 428.921 304.871H170.991C169.867 304.871 168.955 303.959 168.955 302.835Z" fill="#E7E8FF"/>
<path d="M168.955 302.835C168.955 301.71 169.867 300.798 170.991 300.798H321.676C322.801 300.798 323.713 301.71 323.713 302.835C323.713 303.959 322.801 304.871 321.676 304.871H170.991C169.867 304.871 168.955 303.959 168.955 302.835Z" fill="#1F6CAB"/>
<path d="M327.785 302.835C327.785 305.459 325.658 307.586 323.034 307.586C320.409 307.586 318.282 305.459 318.282 302.835C318.282 300.211 320.409 298.083 323.034 298.083C325.658 298.083 327.785 300.211 327.785 302.835Z" fill="#1F6CAB"/>
<path d="M206.966 320.482L195.766 326.949L195.766 314.016L206.966 320.482Z" fill="#032068"/>
<path fill-rule="evenodd" clip-rule="evenodd" d="M224.953 318.915V314.374H227.668V320.482V326.591H224.953V322.05L216.469 326.948V314.016L224.953 318.915Z" fill="#032068"/>
<path fill-rule="evenodd" clip-rule="evenodd" d="M177.1 318.915V314.374H174.385V320.482V326.591H177.1V322.05L185.585 326.948V314.016L177.1 318.915Z" fill="#032068"/>
<path fill-rule="evenodd" clip-rule="evenodd" d="M403.807 317.089H390.232L390.232 325.234H403.807V317.089ZM390.232 315.731C389.482 315.731 388.874 316.339 388.874 317.089V325.234C388.874 325.983 389.482 326.591 390.232 326.591H403.807C404.556 326.591 405.164 325.983 405.164 325.234V317.089C405.164 316.339 404.556 315.731 403.807 315.731H390.232Z" fill="#E7E8FF"/>
<path fill-rule="evenodd" clip-rule="evenodd" d="M430.957 317.089H417.382L417.382 325.234H430.957V317.089ZM417.382 315.731C416.632 315.731 416.024 316.339 416.024 317.089V325.234C416.024 325.983 416.632 326.591 417.382 326.591H430.957C431.707 326.591 432.315 325.983 432.315 325.234V317.089C432.315 316.339 431.707 315.731 430.957 315.731H417.382Z" fill="#E7E8FF"/>
<path d="M378.014 321.161C378.014 324.91 374.975 327.949 371.226 327.949C367.477 327.949 364.438 324.91 364.438 321.161C364.438 317.413 367.477 314.374 371.226 314.374C374.975 314.374 378.014 317.413 378.014 321.161Z" fill="#E7E8FF"/>
<path d="M345.433 216.632C345.433 241.373 325.377 261.43 300.635 261.43C275.894 261.43 255.837 241.373 255.837 216.632C255.837 191.891 275.894 171.834 300.635 171.834C325.377 171.834 345.433 191.891 345.433 216.632Z" fill="#E7E8FF"/>
<path d="M244.977 322.049V317.906C244.977 317.31 245.365 316.783 245.935 316.608L251.017 315.044C251.705 314.833 252.444 315.194 252.663 315.88C253.733 319.226 253.582 321.303 252.669 324.077C252.445 324.761 251.705 325.122 251.018 324.91L245.935 323.346C245.365 323.171 244.977 322.645 244.977 322.049Z" fill="#E7E8FF"/>
<path fill-rule="evenodd" clip-rule="evenodd" d="M256.155 326.405C255.603 326.129 255.384 325.459 255.619 324.888C257.068 321.373 257.067 317.634 255.69 314.542C255.438 313.978 255.619 313.297 256.155 312.99C256.691 312.684 257.379 312.869 257.64 313.428C259.406 317.22 259.374 321.751 257.623 325.89C257.383 326.459 256.708 326.682 256.155 326.405Z" fill="#E7E8FF"/>
<path fill-rule="evenodd" clip-rule="evenodd" d="M261.742 319.877C261.795 317.628 261.299 315.279 260.046 312.236C259.811 311.665 260.064 311.005 260.628 310.754C261.193 310.504 261.855 310.758 262.091 311.328C263.436 314.582 264.04 317.262 263.978 319.929C263.916 322.553 263.21 325.077 262.076 328.02C261.854 328.596 261.201 328.873 260.628 328.641C260.056 328.41 259.781 327.758 260.002 327.182C261.09 324.354 261.69 322.121 261.742 319.877Z" fill="#E7E8FF"/>
<path d="M327.785 215.953L288.078 238.878L288.078 193.028L327.785 215.953Z" fill="#1F6CAB"/>
<path d="M351.542 254.58C351.542 250.488 354.887 247.171 359.013 247.171H451.315C455.441 247.171 458.785 250.488 458.785 254.58V432.54C458.785 436.632 455.441 439.95 451.315 439.95H359.013C354.887 439.95 351.542 436.632 351.542 432.54V254.58Z" fill="white"/>
<path fill-rule="evenodd" clip-rule="evenodd" d="M350.863 254.58C350.863 250.116 354.512 246.497 359.013 246.497H451.315C455.816 246.497 459.465 250.116 459.465 254.58V432.54C459.465 437.004 455.816 440.623 451.315 440.623H359.013C354.512 440.623 350.863 437.004 350.863 432.54V254.58ZM359.013 247.845C355.262 247.845 352.222 250.86 352.222 254.58V432.54C352.222 436.26 355.262 439.276 359.013 439.276H451.315C455.066 439.276 458.107 436.26 458.107 432.54V254.58C458.107 250.86 455.066 247.845 451.315 247.845H359.013Z" fill="#1F6CAB"/>
<path d="M383.808 253.576L380.363 247.171H429.963L425.909 253.872C424.682 255.901 422.471 257.142 420.086 257.142H389.8C387.292 257.142 384.988 255.771 383.808 253.576Z" fill="#1F6CAB"/>
<path d="M457.471 251.159H352.174C355.659 247.702 358.988 247.06 360.217 247.17H449.427C453.717 247.17 456.577 249.829 457.471 251.159Z" fill="#1F6CAB"/>
<path d="M457.42 436.169H352.909C356.531 439.682 358.625 440.335 359.902 440.222H450.428C454.886 440.222 456.492 437.52 457.42 436.169Z" fill="#1F6CAB"/>
<path d="M360.897 271.057C360.897 269.941 361.81 269.025 362.935 269.025H397.112C398.238 269.025 399.15 269.941 399.15 271.057C399.15 272.173 398.238 273.09 397.112 273.09H362.935C361.81 273.09 360.897 272.173 360.897 271.057Z" fill="#1F6CAB"/>
<path d="M360.897 377.028C360.897 375.93 361.795 375.04 362.902 375.04H422.363C423.47 375.04 424.367 375.93 424.367 377.028C424.367 378.126 423.47 379.016 422.363 379.016H362.902C361.795 379.016 360.897 378.126 360.897 377.028Z" fill="#1F6CAB"/>
<path d="M360.897 389C360.897 387.884 361.81 386.967 362.935 386.967H397.112C398.238 386.967 399.15 387.884 399.15 389C399.15 390.116 398.238 391.032 397.112 391.032H362.935C361.81 391.032 360.897 390.116 360.897 389Z" fill="#1F6CAB"/>
<path fill-rule="evenodd" clip-rule="evenodd" d="M360.218 286.285C360.218 284.797 361.434 283.591 362.934 283.591H447.049C448.549 283.591 449.765 284.797 449.765 286.285V363.081C449.765 364.569 448.549 365.775 447.049 365.775H362.934C361.434 365.775 360.218 364.569 360.218 363.081V286.285ZM362.934 284.938C362.184 284.938 361.576 285.541 361.576 286.285V363.081C361.576 363.825 362.184 364.428 362.934 364.428H447.049C447.799 364.428 448.407 363.825 448.407 363.081V286.285C448.407 285.541 447.799 284.938 447.049 284.938H362.934Z" fill="#E7E8FF"/>
<path d="M427.038 324.683C427.038 336.759 417.167 346.549 404.991 346.549C392.814 346.549 382.943 336.759 382.943 324.683C382.943 312.607 392.814 302.817 404.991 302.817C417.167 302.817 427.038 312.607 427.038 324.683Z" fill="#E7E8FF"/>
<path d="M407.215 333.959L407.215 316.069L413.676 316.069L413.676 333.959L407.215 333.959ZM396.305 333.959L396.305 316.069L402.766 316.069L402.766 333.959L396.305 333.959Z" fill="#1F6CAB"/>
<path d="M412.507 413.14L399.98 419.739L399.98 406.541L412.507 413.14Z" fill="#E7E8FF"/>
<path fill-rule="evenodd" clip-rule="evenodd" d="M431.584 411.44V406.512H434.554V419.768H431.584V414.84L422.301 420.156V406.124L431.584 411.44Z" fill="#E7E8FF"/>
<path fill-rule="evenodd" clip-rule="evenodd" d="M379.233 411.44V406.512H376.262V419.768H379.233V414.84L388.516 420.156L388.516 406.124L379.233 411.44Z" fill="#E7E8FF"/>
<path d="M481.009 186.63L477.828 193.232C477.635 193.634 477.235 193.892 476.792 193.902L471.16 194.021C469.948 194.046 469.558 195.676 470.623 196.267L475.661 199.064C476.029 199.269 476.263 199.653 476.278 200.076L476.5 206.399C476.542 207.588 478.087 208.002 478.698 206.989L482.079 201.378C482.277 201.049 482.622 200.837 483.003 200.81L488.21 200.437C489.383 200.353 489.725 198.779 488.696 198.198L484.231 195.672C483.872 195.469 483.642 195.094 483.622 194.68L483.259 187.105C483.2 185.866 481.545 185.517 481.009 186.63Z" fill="#E7E8FF"/>
<path d="M123.641 105.536L115.013 111.33C114.489 111.682 113.815 111.711 113.266 111.405L106.292 107.51C104.791 106.672 103.146 108.386 104.024 109.872L108.179 116.908C108.482 117.422 108.493 118.061 108.208 118.589L103.943 126.481C103.142 127.965 104.734 129.58 106.209 128.779L114.368 124.342C114.848 124.082 115.42 124.07 115.906 124.31L122.543 127.589C124.038 128.328 125.584 126.648 124.744 125.199L121.094 118.907C120.801 118.402 120.788 117.778 121.061 117.257L126.052 107.732C126.868 106.174 125.095 104.56 123.641 105.536Z" fill="#E7E8FF"/>
<path d="M71.7057 163.506L72.0725 168.182C72.0948 168.466 71.957 168.738 71.7151 168.885L68.6385 170.765C67.9766 171.169 68.2859 172.196 69.0648 172.18L72.7517 172.105C73.0209 172.099 73.2746 172.237 73.419 172.466L75.5776 175.891C75.9833 176.535 76.9713 176.267 76.9827 175.509L77.0461 171.318C77.0498 171.072 77.1719 170.844 77.374 170.706L80.1335 168.823C80.7552 168.399 80.4375 167.419 79.6814 167.429L76.3988 167.47C76.1352 167.473 75.8871 167.34 75.7428 167.117L73.1033 163.045C72.6716 162.379 71.6439 162.718 71.7057 163.506Z" fill="#E7E8FF"/>
<path d="M116.087 202.09C99.3059 213.908 106.359 234.916 109.521 243.057L108.135 259.669C109.57 264.899 114.774 275.359 124.113 275.359C133.453 275.359 137.733 266.43 138.706 261.965L137.247 249.36C148.191 245.421 148.921 229.664 148.191 217.059C147.325 202.09 130.869 191.681 116.087 202.09Z" fill="white"/>
<path fill-rule="evenodd" clip-rule="evenodd" d="M136.878 200.967C131.157 197.977 123.762 197.943 116.682 202.928C108.641 208.591 106.297 216.432 106.356 223.944C106.415 231.497 108.91 238.64 110.482 242.687L110.567 242.907L109.178 259.571C109.891 262.079 111.479 265.765 113.962 268.831C116.501 271.964 119.871 274.332 124.113 274.332C128.408 274.332 131.545 272.293 133.758 269.675C135.934 267.102 137.176 264.01 137.662 261.911L136.129 248.671L136.896 248.395C141.897 246.595 144.672 242.075 146.095 236.218C147.517 230.364 147.525 223.398 147.162 217.118C146.75 209.996 142.63 203.973 136.878 200.967ZM107.109 259.575L108.473 243.207C106.877 239.07 104.355 231.761 104.294 223.96C104.231 215.978 106.752 207.406 115.492 201.252C123.194 195.828 131.418 195.794 137.836 199.149C144.225 202.487 148.766 209.153 149.22 217C149.586 223.325 149.595 230.54 148.099 236.701C146.668 242.588 143.806 247.718 138.362 250.026L139.75 262.017L139.713 262.183C139.198 264.548 137.822 268.057 135.336 270.997C132.831 273.96 129.157 276.385 124.113 276.385C119.016 276.385 115.114 273.523 112.357 270.12C109.724 266.869 108.04 263.017 107.245 260.306L107.035 260.285L107.109 259.575Z" fill="#1F6CAB"/>
<path d="M110.047 238.939L108.594 253.224C108.109 252.166 106.994 249.097 106.413 245.288C105.686 240.526 94.0555 222.273 97.69 208.782C100.598 197.989 108.594 198.465 112.228 200.053C114.409 196.085 127.493 182.593 146.393 184.181C165.293 185.768 167.473 212.75 152.208 216.718C139.996 219.893 126.282 218.041 120.951 216.718C120.467 217.776 119.061 221.321 117.317 227.035C115.136 234.177 115.136 235.765 114.409 231.003C113.682 226.241 110.774 217.512 107.14 226.241C104.232 233.225 107.867 237.616 110.047 238.939Z" fill="#1F6CAB"/>
<path d="M120.606 249.073C125.608 252.006 133.342 250.295 136.584 249.073L137.279 254.206C130.054 255.965 123.154 251.517 120.606 249.073Z" fill="#1F6CAB"/>
<path d="M123.468 267.883C133.67 267.883 139.081 262.318 140.827 259.027C141.02 258.664 141.393 258.417 141.805 258.423C173.875 258.946 196.182 296.058 203.481 314.94C203.551 315.119 203.564 315.307 203.527 315.496L194.793 359.647C194.77 359.766 194.767 359.883 194.786 360.003C197.959 379.678 203.439 420.56 200.189 428.109C196.93 435.681 166.242 440.954 141.121 440.954C97.6685 440.954 41.5874 439.872 34.5263 432.841C25.7 424.053 37.2423 314.531 56.9317 286.812C72.3356 265.127 95.7044 258.054 105.83 258.384C106.239 258.398 106.579 258.668 106.75 259.039C108.266 262.331 113.278 267.883 123.468 267.883Z" fill="white"/>
<path fill-rule="evenodd" clip-rule="evenodd" d="M82.9037 263.422C92.0471 258.93 100.59 257.186 105.863 257.358C106.738 257.387 107.387 257.96 107.687 258.611C109.046 261.563 113.708 266.856 123.468 266.856C133.249 266.856 138.329 261.537 139.915 258.548C140.266 257.887 140.974 257.383 141.822 257.397C158.269 257.665 172.114 267.31 182.701 279.113C193.297 290.926 200.758 305.038 204.443 314.571C204.586 314.941 204.611 315.326 204.538 315.694L195.805 359.845C197.393 369.696 199.559 384.854 200.922 398.501C201.603 405.325 202.085 411.788 202.193 417.028C202.246 419.648 202.206 421.979 202.047 423.906C201.891 425.806 201.612 427.41 201.137 428.513C200.627 429.698 199.628 430.741 198.352 431.665C197.066 432.596 195.424 433.459 193.517 434.257C189.701 435.853 184.701 437.238 179.058 438.377C167.764 440.657 153.743 441.981 141.121 441.981C119.391 441.981 94.4832 441.71 74.1181 440.559C63.9386 439.984 54.8688 439.187 47.8889 438.089C44.4007 437.54 41.4079 436.912 39.0483 436.19C36.7316 435.48 34.8704 434.636 33.7971 433.567C33.0637 432.837 32.5311 431.697 32.1207 430.357C31.7017 428.989 31.3735 427.285 31.1242 425.308C30.6252 421.352 30.4291 416.192 30.5036 410.202C30.6528 398.214 31.8878 382.791 34.0133 366.791C36.1389 350.789 39.1587 334.183 42.8847 319.83C46.6009 305.515 51.0506 293.314 56.0897 286.22C63.9044 275.218 73.7391 267.924 82.9037 263.422ZM83.816 265.263C74.914 269.636 65.3624 276.721 57.7731 287.405C52.9675 294.17 48.5909 306.053 44.881 320.344C41.1811 334.597 38.1752 351.118 36.0574 367.06C33.9394 383.004 32.7132 398.342 32.5653 410.227C32.4913 416.173 32.6877 421.228 33.17 425.052C33.4113 426.966 33.7209 428.543 34.093 429.758C34.4736 431.001 34.8851 431.747 35.255 432.116C35.947 432.805 37.3829 433.532 39.6544 434.227C41.883 434.91 44.7694 435.52 48.2107 436.061C55.0899 437.143 64.0801 437.936 74.235 438.509C94.5388 439.657 119.398 439.928 141.121 439.928C153.619 439.928 167.503 438.615 178.648 436.365C184.225 435.239 189.078 433.887 192.718 432.364C194.539 431.603 196.025 430.811 197.139 430.005C198.263 429.191 198.936 428.413 199.241 427.705C199.579 426.921 199.839 425.595 199.992 423.738C200.143 421.907 200.184 419.652 200.131 417.07C200.025 411.907 199.549 405.505 198.87 398.705C197.512 385.108 195.352 369.99 193.768 360.166C193.729 359.921 193.736 359.681 193.782 359.448L202.515 315.298C198.899 305.949 191.558 292.07 181.163 280.481C170.754 268.876 157.411 259.704 141.788 259.45C141.798 259.45 141.797 259.447 141.785 259.454C141.771 259.463 141.752 259.481 141.738 259.507C139.832 263.1 134.089 268.909 123.468 268.909C112.848 268.909 107.485 263.099 105.812 259.467C105.804 259.448 105.794 259.433 105.786 259.423C105.781 259.417 105.777 259.413 105.774 259.41C100.919 259.257 92.726 260.886 83.816 265.263Z" fill="#1F6CAB"/>
<path d="M74.5831 416.616C64.8063 406.34 51.4989 374.024 46.0674 359.151C47.4253 379.658 65.7568 426.081 74.5831 426.081C94.1367 430.408 142.025 399.039 163.525 382.813C137.951 398.363 84.3599 426.892 74.5831 416.616Z" fill="#1F6CAB"/>
<path d="M177.783 301.686L184.573 321.968H189.325L177.783 301.686Z" fill="#1F6CAB"/>
<path d="M102.42 415.94C86.1256 402.419 68.4731 399.94 61.6836 400.391C63.4941 406.475 70.9173 418.374 77.9783 419.997C85.0393 421.619 96.5361 418.194 102.42 415.94Z" fill="#1F6CAB"/>
<path d="M109.209 355.771L101.741 319.94L116.677 353.743C130.256 350.362 144.967 350.362 152.662 350.362C121.43 355.771 106.493 361.855 92.2354 365.912L109.209 355.771Z" fill="#1F6CAB"/>
<path d="M167.598 347.658C164.34 349.281 158.999 354.193 156.735 356.447L160.809 374.025C164.068 373.484 172.577 371.095 176.425 369.968L177.783 338.193C170.993 340.222 171.672 345.63 167.598 347.658Z" fill="white"/>
<path fill-rule="evenodd" clip-rule="evenodd" d="M178.875 336.795L177.424 370.746L176.716 370.953C172.891 372.073 164.313 374.484 160.979 375.037L160.023 375.196L155.603 356.123L156.007 355.721C157.155 354.577 159.077 352.766 161.126 351.033C163.155 349.318 165.387 347.612 167.138 346.74C168.548 346.038 169.247 344.897 170.175 343.384C170.371 343.064 170.577 342.727 170.803 342.375C172.067 340.396 173.77 338.32 177.487 337.21L178.875 336.795ZM172.024 344.318C171.096 345.853 170.049 347.586 168.06 348.576C166.551 349.327 164.483 350.888 162.461 352.598C160.685 354.1 159.004 355.665 157.869 356.774L161.591 372.833C165.037 372.126 171.697 370.271 175.426 369.189L176.687 339.689C174.565 340.641 173.47 342.025 172.542 343.477C172.37 343.746 172.199 344.029 172.024 344.318Z" fill="#1F6CAB"/>
<path d="M179.086 320.73L174.488 386.789C174.439 387.491 175.099 388.033 175.782 387.852L234.823 372.174C235.228 372.067 235.528 371.725 235.58 371.311L243.463 309.171C243.551 308.479 242.936 307.904 242.248 308.033L179.922 319.792C179.462 319.879 179.118 320.264 179.086 320.73Z" fill="white"/>
<path fill-rule="evenodd" clip-rule="evenodd" d="M242.056 307.025C243.431 306.765 244.661 307.916 244.486 309.299L236.603 371.44C236.498 372.268 235.899 372.951 235.088 373.166L176.047 388.844C174.681 389.207 173.361 388.123 173.459 386.718L178.057 320.659C178.122 319.728 178.809 318.957 179.73 318.784L242.056 307.025L242.248 308.033L242.056 307.025ZM242.44 309.042L180.114 320.801L175.516 386.86L234.557 371.182L242.44 309.042Z" fill="#1F6CAB"/>
<path d="M218.074 350.032C216.141 357.247 211.049 362.16 206.701 361.005C202.354 359.85 200.396 353.064 202.33 345.849C204.263 338.634 209.354 333.721 213.702 334.876C218.05 336.031 220.007 342.816 218.074 350.032Z" fill="#1F6CAB"/>
<path d="M230.741 349.01C231.249 340.929 236.532 336.935 239.625 335.709C239.999 335.56 240.281 335.234 240.334 334.837L241.463 326.4C241.54 325.824 242.087 325.419 242.622 325.65C246.218 327.199 248.957 333.701 247.714 343.602C246.357 354.419 240.247 359.151 237.531 359.151C234.815 359.151 230.062 359.827 230.741 349.01Z" fill="white"/>
<path fill-rule="evenodd" clip-rule="evenodd" d="M240.441 326.264C240.583 325.204 241.702 324.135 243.031 324.708C245.215 325.648 246.94 327.984 247.965 331.182C248.999 334.411 249.372 338.667 248.737 343.729C248.037 349.309 246.102 353.378 243.936 356.074C242.856 357.42 241.711 358.43 240.626 359.111C239.562 359.78 238.478 360.178 237.53 360.178C237.402 360.178 237.261 360.18 237.109 360.183C235.843 360.206 233.81 360.244 232.207 358.93C230.359 357.414 229.368 354.425 229.712 348.946C230.25 340.38 235.87 336.093 239.243 334.755C239.273 334.743 239.293 334.726 239.304 334.714C239.309 334.707 239.311 334.703 239.312 334.701L240.441 326.264ZM242.485 326.534C242.485 326.534 242.485 326.534 242.485 326.535L242.461 326.71C242.378 326.667 242.295 326.628 242.212 326.592C242.243 326.605 242.29 326.615 242.343 326.609C242.393 326.603 242.429 326.586 242.45 326.572C242.476 326.554 242.483 326.54 242.485 326.535C242.485 326.534 242.485 326.534 242.485 326.534ZM242.461 326.71L241.355 334.973C241.247 335.779 240.686 336.393 240.006 336.662C237.194 337.778 232.247 341.477 231.77 349.074C231.435 354.413 232.481 356.494 233.518 357.345C234.496 358.147 235.722 358.137 237.066 358.127C237.219 358.126 237.374 358.125 237.53 358.125C237.941 358.125 238.639 357.931 239.527 357.374C240.393 356.83 241.37 355.981 242.326 354.792C244.234 352.417 246.034 348.712 246.691 343.474C247.298 338.636 246.924 334.69 246 331.806C245.121 329.061 243.792 327.403 242.461 326.71Z" fill="#1F6CAB"/>
</svg>
